<svg width="24" height="24" viewBox="0 0 24 24" fill="none" xmlns="http://www.w3.org/2000/svg">
<g id="005-syringe" clip-path="url(#clip0_330_440)">
<g id="Group">
<g id="Group_2">
<path id="Vector" d="M20.3827 7.94413L16.0557 3.61711C15.7608 3.3225 15.2838 3.32226 14.989 3.61659L3.84436 14.7361L4.91053 15.8048L15.5216 5.2176L18.7824 8.47874L8.19552 19.0895L9.26394 20.1557L20.3834 9.01081C20.6775 8.71592 20.6773 8.23846 20.3827 7.94413Z" fill="white"/>
</g>
</g>
<g id="Group_3">
<g id="Group_4">
<path id="Vector_2" d="M21.6659 3.3908L20.6094 2.3342C20.3633 2.08815 19.9814 2.04212 19.6841 2.22273L16.0363 4.43658L16.8194 5.72691L19.9608 3.82023L20.1797 4.03932L18.2733 7.18069L19.5636 7.96383L21.7774 4.31602C21.958 4.01874 21.912 3.63657 21.6659 3.3908Z" fill="white"/>
</g>
</g>
<g id="Group_5">
<g id="Group_6">
<path id="Vector_3" d="M10.672 20.4979L3.50223 13.3281C3.20762 13.0332 2.72964 13.0332 2.43508 13.3281C2.14023 13.6227 2.14023 14.1007 2.43508 14.3952L9.60488 21.565C9.75206 21.7124 9.94523 21.7861 10.1385 21.7861C10.3314 21.7861 10.5249 21.7124 10.672 21.565C10.9669 21.2705 10.9669 20.7925 10.672 20.4979Z" fill="white"/>
</g>
</g>
<g id="Group_7">
<g id="Group_8">
<path id="Vector_4" d="M10.4836 13.9072L3.4402 20.9766L4.50931 22.0417L11.5527 14.9724L10.4836 13.9072Z" fill="white"/>
</g>
</g>
<g id="Group_9">
<g id="Group_10">
<path id="Vector_5" d="M9.00065 12.4243L1.95726 19.4937L3.02637 20.5588L10.0698 13.4895L9.00065 12.4243Z" fill="white"/>
</g>
</g>
<g id="Group_11">
<g id="Group_12">
<path id="Vector_6" d="M6.26946 22.7118L1.28835 17.7304C0.993503 17.4358 0.51552 17.4353 0.220911 17.7304C-0.073698 18.025 -0.073698 18.5027 0.220911 18.7976L5.20203 23.779C5.34945 23.9264 5.54267 24.0001 5.73584 24.0001C5.92878 24.0001 6.12228 23.9263 6.26942 23.779C6.56407 23.4844 6.56407 23.0066 6.26946 22.7118Z" fill="white"/>
</g>
</g>
<g id="Group_13">
<g id="Group_14">
<path id="Vector_7" d="M23.7789 0.221132C23.484 -0.0737108 23.0066 -0.0737108 22.7117 0.221132L20.0702 2.86263C19.7753 3.15724 19.7753 3.63522 20.0702 3.92978C20.2176 4.0772 20.4106 4.15089 20.6038 4.15089C20.797 4.15089 20.9902 4.07716 21.1373 3.92978L23.7788 1.28829C24.0737 0.993725 24.0737 0.515741 23.7789 0.221132Z" fill="white"/>
</g>
</g>
<g id="Group_15">
<g id="Group_16">
<path id="Vector_8" d="M8.75982 10.9879L7.6925 12.0552L11.9439 16.3066L13.0113 15.2393L8.75982 10.9879Z" fill="white"/>
</g>
</g>
</g>
<defs>
<clipPath id="clip0_330_440">
<rect width="24" height="24" fill="white"/>
</clipPath>
</defs>
</svg>
