<svg width="24" height="24" viewBox="0 0 24 24" fill="none" xmlns="http://www.w3.org/2000/svg">
<g id="013-care-2" clip-path="url(#clip0_330_534)">
<g id="Group">
<g id="Group_2">
<path id="Vector" d="M22.9939 15.0477C22.9729 15.0196 22.9503 14.9935 22.9261 14.9685C22.2284 14.0961 20.9672 13.9209 20.0878 14.581C18.8203 15.5152 16.6518 17.0872 15.928 17.6118L12.7664 17.3639L14.7008 16.9405C15.737 16.7897 16.4799 15.8754 16.435 14.7963C16.4347 14.7849 16.4339 14.7734 16.4328 14.7623C16.343 13.6839 15.4668 12.8708 14.395 12.8708H8.54464C8.06928 12.8708 7.62575 12.9925 7.22628 13.2322C7.21025 13.242 7.19446 13.2521 7.17894 13.263L0.947659 17.6167C0.578143 17.8749 0.487815 18.3841 0.746003 18.7533C1.00396 19.1231 1.51335 19.2137 1.88258 18.9549L8.08775 14.6194C8.22599 14.5413 8.37566 14.5029 8.54488 14.5029H14.3952C14.6123 14.5029 14.7783 14.6574 14.8045 14.8806C14.8064 15.077 14.7005 15.2953 14.4573 15.3257C14.4328 15.3287 14.4083 15.3328 14.384 15.3383L10.901 16.1002C10.6292 16.1597 10.4064 16.3535 10.3098 16.6144C10.2132 16.8757 10.2561 17.1679 10.4241 17.3899L11.3492 18.6144C11.4899 18.8008 11.7038 18.9181 11.9367 18.9363L16.1 19.2628C16.2926 19.2767 16.4855 19.2236 16.6423 19.1101C16.6708 19.0895 19.5201 17.0272 21.0616 15.8911C21.2376 15.7591 21.5176 15.8092 21.6599 15.9997C21.6757 16.0206 21.6926 16.041 21.7103 16.0601C21.8199 16.2394 21.778 16.4694 21.6042 16.5997L16.0823 20.7617C15.9199 20.8833 15.7506 20.9296 15.5571 20.904L7.50271 19.8972C7.28286 19.8698 7.06189 19.9326 6.88939 20.0714L3.81458 22.5478C3.4633 22.8308 3.40803 23.3448 3.69078 23.6958C3.85189 23.8961 4.08833 24.0001 4.32697 24.0001C4.50683 24.0001 4.68777 23.941 4.83828 23.8199L7.64347 21.5606L15.3477 22.5236C15.9621 22.6055 16.5542 22.4479 17.0628 22.067L22.5855 17.9051C23.4859 17.2297 23.669 15.9481 22.9939 15.0477Z" fill="white"/>
</g>
</g>
<g id="Group_3">
<g id="Group_4">
<path id="Vector_2" d="M15.7278 2.83008C15.2769 2.83008 14.9115 3.19552 14.9115 3.64641V8.54437C14.9115 8.99527 15.2769 9.3607 15.7278 9.3607C16.1787 9.3607 16.5441 8.99527 16.5441 8.54437V3.64641C16.5441 3.19552 16.1787 2.83008 15.7278 2.83008Z" fill="white"/>
</g>
</g>
<g id="Group_5">
<g id="Group_6">
<path id="Vector_3" d="M18.1768 5.27881H13.2788C12.8279 5.27881 12.4625 5.64425 12.4625 6.09514C12.4625 6.54603 12.8279 6.91146 13.2788 6.91146H18.1768C18.6276 6.91146 18.9931 6.54603 18.9931 6.09514C18.9931 5.64425 18.6276 5.27881 18.1768 5.27881Z" fill="white"/>
</g>
</g>
<g id="Group_7">
<g id="Group_8">
<path id="Vector_4" d="M15.7278 0C12.3667 0 9.63281 2.73417 9.63281 6.09525C9.63281 9.45633 12.3667 12.1905 15.7278 12.1905C19.0886 12.1905 21.823 9.45638 21.823 6.09525C21.823 2.73412 19.0889 0 15.7278 0ZM15.7278 10.5578C13.2671 10.5578 11.2655 8.55595 11.2655 6.09525C11.2655 3.63455 13.2671 1.63266 15.7278 1.63266C18.1884 1.63266 20.1904 3.63455 20.1904 6.09525C20.1904 8.55595 18.1885 10.5578 15.7278 10.5578Z" fill="white"/>
</g>
</g>
</g>
<defs>
<clipPath id="clip0_330_534">
<rect width="24" height="24" fill="white"/>
</clipPath>
</defs>
</svg>
