<svg width="24" height="24" viewBox="0 0 24 24" fill="none" xmlns="http://www.w3.org/2000/svg">
<g id="017-heart">
<g id="Group">
<g id="Group_2">
<path id="Vector" d="M21.8898 3.34121C20.6794 2.11754 19.0442 1.44104 17.2855 1.43607C15.4753 1.43002 13.6613 2.1159 12.2078 3.33516C10.5548 1.87946 9.05947 1.16968 7.65139 1.16968C5.68489 1.16968 3.86038 1.94419 2.52636 3.33821C1.52371 4.34087 0.836707 5.6573 0.53891 7.14544C0.449753 7.59268 0.739535 8.02754 1.18682 8.11702C1.63353 8.20566 2.06891 7.9164 2.15839 7.46912C2.39179 6.30188 2.92269 5.27719 3.70658 4.49307C4.73868 3.41471 6.13986 2.82104 7.65144 2.82104C8.74658 2.82104 10.0732 3.55894 11.5804 4.99974C11.7493 5.16957 11.9714 5.26341 12.2057 5.26369C12.206 5.26369 12.2065 5.26369 12.2068 5.26369C12.4404 5.26369 12.6625 5.17041 12.8318 5.00115C14.0486 3.78437 15.6642 3.08747 17.266 3.08747C17.2713 3.08747 17.2762 3.08747 17.2812 3.08747C18.616 3.09104 19.8039 3.58069 20.7066 4.49307C21.7657 5.59923 22.349 7.04804 22.349 8.57335C22.349 10.0998 21.7525 11.5846 20.7292 12.631L12.2202 20.8565L5.47293 14.3374C5.14513 14.0206 4.62247 14.0303 4.30541 14.3573C3.98863 14.6853 3.99772 15.208 4.32552 15.5248L11.6466 22.5982C11.8065 22.7529 12.0135 22.8302 12.2202 22.8302C12.4268 22.8302 12.6338 22.7529 12.794 22.5984L21.8931 13.8021C23.2321 12.4334 24 10.5277 24 8.5733C24 6.62054 23.2538 4.76579 21.8898 3.34121Z" fill="white"/>
</g>
</g>
<g id="Group_3">
<g id="Group_4">
<path id="Vector_2" d="M22.5138 10.4724H15.8532C15.6259 10.4724 15.409 10.5657 15.2532 10.7309L12.7494 13.3783L9.86559 6.83667C9.74175 6.55566 9.47203 6.36656 9.1657 6.34594C8.86102 6.32639 8.56683 6.47639 8.40633 6.73814L6.11588 10.4724H0.825703C0.369609 10.4724 0 10.842 0 11.2981C0 11.7542 0.369609 12.1238 0.825703 12.1238H6.57773C6.8648 12.1238 7.13152 11.9747 7.28152 11.7297L8.99016 8.94441L11.74 15.1816C11.8515 15.4349 12.0824 15.6151 12.3548 15.6622C12.4016 15.6702 12.4487 15.6743 12.4955 15.6743C12.7206 15.6743 12.9383 15.5824 13.0955 15.4161L16.2089 12.1238H22.5138C22.9699 12.1238 23.3395 11.7541 23.3395 11.2981C23.3394 10.842 22.9698 10.4724 22.5138 10.4724Z" fill="white"/>
</g>
</g>
</g>
</svg>
