<svg width="24" height="24" viewBox="0 0 24 24" fill="none" xmlns="http://www.w3.org/2000/svg">
<g id="024-clinic" clip-path="url(#clip0_330_556)">
<g id="Group">
<g id="Group_2">
<path id="Vector" d="M18.7816 12.9831V21.5798H5.21863V12.8066H3.70602V22.336C3.70602 22.7538 4.0446 23.0923 4.46231 23.0923H19.538C19.9557 23.0923 20.2942 22.7537 20.2942 22.336V12.9831H18.7816Z" fill="white"/>
</g>
</g>
<g id="Group_3">
<g id="Group_4">
<path id="Vector_2" d="M23.9976 11.5614C23.981 11.3532 23.8789 11.161 23.7155 11.0307L12.4718 2.05589C12.1955 1.83554 11.804 1.83554 11.5282 2.05589L0.284481 11.0307C0.121121 11.161 0.0190276 11.3532 0.00238695 11.5614C-0.0142537 11.7696 0.0561057 11.9756 0.196496 12.1301L2.44022 14.6007C2.58895 14.7646 2.79417 14.8486 3.00037 14.8486C3.1665 14.8486 3.33389 14.7938 3.47283 14.6827L12.0001 7.85124L20.5269 14.6827C20.8393 14.9318 21.2913 14.8969 21.5598 14.6007L23.8035 12.1301C23.9442 11.9756 24.0143 11.7696 23.9976 11.5614ZM20.918 13.0574L12.4728 6.29199C12.3349 6.18132 12.1675 6.12586 12.0001 6.12586C11.8327 6.12586 11.6654 6.18132 11.5272 6.29199L3.08179 13.0574L1.85812 11.7098L12.0001 3.61439L22.1419 11.7098L20.918 13.0574Z" fill="white"/>
</g>
</g>
<g id="Group_5">
<g id="Group_6">
<path id="Vector_3" d="M19.0085 0.907715H16.0335C15.6157 0.907715 15.2772 1.24629 15.2772 1.664V5.94973H16.7898V2.42028H18.2523V8.21858H19.7649V1.664C19.7649 1.24625 19.4263 0.907715 19.0085 0.907715Z" fill="white"/>
</g>
</g>
<g id="Group_7">
<g id="Group_8">
<path id="Vector_4" d="M12.0001 12.9832C11.5824 12.9832 11.2439 13.3217 11.2439 13.7394V18.8319C11.2439 19.2496 11.5824 19.5882 12.0001 19.5882C12.4178 19.5882 12.7562 19.2496 12.7564 18.8319V13.7394C12.7564 13.3217 12.4178 12.9832 12.0001 12.9832Z" fill="white"/>
</g>
</g>
<g id="Group_9">
<g id="Group_10">
<path id="Vector_5" d="M14.5463 15.5293H9.45393C9.03618 15.5293 8.69765 15.8679 8.69765 16.2856C8.69765 16.7033 9.03623 17.0419 9.45393 17.0419H14.5464C14.9641 17.0419 15.3027 16.7033 15.3027 16.2856C15.3027 15.8679 14.9641 15.5293 14.5463 15.5293Z" fill="white"/>
</g>
</g>
</g>
<defs>
<clipPath id="clip0_330_556">
<rect width="24" height="24" fill="white"/>
</clipPath>
</defs>
</svg>
