<svg width="24" height="24" viewBox="0 0 24 24" fill="none" xmlns="http://www.w3.org/2000/svg">
<g id="028-bandage" clip-path="url(#clip0_330_484)">
<g id="Group">
<g id="Group_2">
<path id="Vector" d="M22.4113 14.8077L9.16239 1.55872C7.08745 -0.515936 3.68424 -0.518655 1.56988 1.55872C-0.523252 3.65185 -0.523252 7.05778 1.56988 9.15091L14.8188 22.3998C15.8654 23.4464 17.24 23.9697 18.6149 23.9697C19.9895 23.9697 21.3644 23.4464 22.4113 22.4001C24.5041 20.307 24.5041 16.9008 22.4113 14.8077ZM21.1252 21.1138C19.7409 22.4971 17.4889 22.4971 16.1049 21.1138L2.85628 7.86483C1.47224 6.48084 1.47224 4.22852 2.85052 2.85028C3.55116 2.16178 4.46617 1.81766 5.37752 1.81766C6.28616 1.81766 7.19114 2.15995 7.87631 2.84452L21.1252 16.0934C22.5089 17.4777 22.5089 19.7297 21.1252 21.1138Z" fill="white"/>
</g>
</g>
<g id="Group_3">
<g id="Group_4">
<path id="Vector_2" d="M22.411 1.58774C21.4035 0.580292 20.0549 0.0251465 18.6148 0.0251465C17.1747 0.0251465 15.8262 0.579964 14.8187 1.58774L1.56985 14.8367C-0.523282 16.9298 -0.523282 20.3357 1.56985 22.4288C2.61644 23.4754 3.99101 23.999 5.36596 23.999C6.74091 23.999 8.11549 23.4758 9.16175 22.4288L22.441 9.14964C23.4523 8.13854 24.0063 6.79274 23.9999 5.36023C23.9938 3.92828 23.4275 2.58642 22.411 1.58774ZM21.1552 7.86357L7.87595 21.1428C6.49163 22.5262 4.23964 22.5268 2.85592 21.1428C1.47221 19.7584 1.47221 17.5067 2.85592 16.1227L16.1048 2.87381C16.7961 2.18259 17.7041 1.83665 18.6127 1.83665C19.5235 1.83665 20.4352 2.18409 21.1306 2.87958C21.804 3.54141 22.1769 4.4252 22.1812 5.36806C22.1851 6.31157 21.8207 7.19775 21.1552 7.86357Z" fill="white"/>
</g>
</g>
<g id="Group_5">
<g id="Group_6">
<path id="Vector_3" d="M10.2471 11.4477C9.88331 11.0839 9.24661 11.0839 8.8828 11.4477C8.519 11.8115 8.519 12.4482 8.8828 12.812C9.24661 13.1758 9.88331 13.1758 10.2471 12.812C10.6413 12.4178 10.6413 11.8115 10.2471 11.4477Z" fill="white"/>
</g>
</g>
<g id="Group_7">
<g id="Group_8">
<path id="Vector_4" d="M10.352 11.3381C9.9315 10.9197 9.19541 10.92 8.7755 11.3402C8.35498 11.761 8.35498 12.4986 8.7755 12.9191C8.98593 13.1292 9.27543 13.2344 9.56498 13.2344C9.85453 13.2344 10.144 13.1295 10.3542 12.9191C10.5795 12.6939 10.7001 12.4016 10.694 12.0966C10.6883 11.8065 10.5667 11.5373 10.352 11.3381ZM10.1401 12.7048C9.83391 13.0107 9.29634 13.011 8.99015 12.7048C8.68396 12.3986 8.68396 11.8611 8.99015 11.5549C9.14324 11.4018 9.35395 11.3254 9.56498 11.3254C9.77601 11.3254 9.987 11.4018 10.1401 11.5549L10.1444 11.5591C10.2993 11.7019 10.3869 11.8951 10.3912 12.103C10.3957 12.3246 10.3066 12.5384 10.1401 12.7048Z" fill="white"/>
</g>
</g>
<g id="Group_9">
<g id="Group_10">
<path id="Vector_5" d="M12.5513 13.7516C12.1875 13.3878 11.5507 13.3878 11.1869 13.7516C10.8231 14.1154 10.8231 14.7521 11.1869 15.1159C11.5507 15.4797 12.1875 15.4797 12.5513 15.1159C12.9454 14.7521 12.9454 14.1154 12.5513 13.7516Z" fill="white"/>
</g>
</g>
<g id="Group_11">
<g id="Group_12">
<path id="Vector_6" d="M12.6565 13.6422C12.4549 13.4418 12.1681 13.3269 11.8691 13.3269C11.569 13.3269 11.2813 13.4424 11.0797 13.6443C10.878 13.8462 10.7625 14.1337 10.7625 14.4338C10.7625 14.734 10.8778 15.0217 11.0797 15.2233C11.2816 15.4249 11.5693 15.5407 11.8691 15.5407C12.169 15.5407 12.457 15.4249 12.6541 15.227C12.873 15.0251 12.9985 14.7358 12.9985 14.4335C12.9985 14.1324 12.8739 13.8441 12.6565 13.6422ZM12.4442 15.0086C12.1381 15.3148 11.6008 15.3148 11.2943 15.0086C11.1491 14.8634 11.066 14.6539 11.066 14.4338C11.066 14.2136 11.1491 14.0042 11.2943 13.8589C11.4474 13.7058 11.6581 13.6291 11.8691 13.6291C12.0802 13.6291 12.2912 13.7058 12.4442 13.8586L12.4488 13.8629C12.6052 14.0078 12.6953 14.2161 12.6953 14.4338C12.6953 14.6515 12.6053 14.8597 12.4442 15.0086Z" fill="white"/>
</g>
</g>
<g id="Group_13">
<g id="Group_14">
<path id="Vector_7" d="M12.8241 8.87051C12.4603 8.50671 11.8236 8.50671 11.4598 8.87051C11.096 9.23431 11.096 9.87102 11.4598 10.2348C11.8236 10.5986 12.4603 10.5986 12.8241 10.2348C13.1879 9.87102 13.188 9.23431 12.8241 8.87051Z" fill="white"/>
</g>
</g>
<g id="Group_15">
<g id="Group_16">
<path id="Vector_8" d="M12.9315 8.76314C12.5109 8.34262 11.773 8.34262 11.3525 8.76314C10.932 9.18366 10.932 9.9213 11.3525 10.3418C11.5626 10.5522 11.8521 10.6574 12.142 10.6574C12.4318 10.6574 12.7214 10.5522 12.9315 10.3418C13.3516 9.9213 13.3516 9.18366 12.9315 8.76314ZM12.7168 10.1278C12.426 10.4182 11.8573 10.4182 11.5669 10.1278C11.2607 9.82159 11.2607 9.28402 11.5669 8.97783C11.72 8.82474 11.931 8.74833 12.142 8.74833C12.353 8.74833 12.564 8.82474 12.7168 8.97783C13.023 9.28431 13.023 9.82155 12.7168 10.1278Z" fill="white"/>
</g>
</g>
<g id="Group_17">
<g id="Group_18">
<path id="Vector_9" d="M15.1283 11.1747C14.7645 10.8109 14.1278 10.8109 13.764 11.1747C13.4002 11.5385 13.4002 12.1752 13.764 12.539C14.1278 12.9028 14.7645 12.9028 15.1283 12.539C15.5224 12.1752 15.5224 11.5688 15.1283 11.1747Z" fill="white"/>
</g>
</g>
<g id="Group_19">
<g id="Group_20">
<path id="Vector_10" d="M15.2357 11.0674C15.0338 10.8658 14.7463 10.75 14.4462 10.75C14.146 10.75 13.8583 10.8655 13.6567 11.0674C13.4551 11.2694 13.3393 11.5568 13.3393 11.8569C13.3393 12.1571 13.4548 12.4448 13.6567 12.6464C13.8586 12.848 14.1463 12.9638 14.4462 12.9638C14.746 12.9638 15.034 12.848 15.2311 12.6501C15.4473 12.4506 15.5695 12.1804 15.5755 11.8894C15.5816 11.5847 15.4609 11.2927 15.2357 11.0674ZM15.0213 12.4318C14.7151 12.7379 14.1775 12.7379 13.8713 12.4318C13.7261 12.2865 13.6427 12.077 13.6427 11.8569C13.6427 11.6368 13.7261 11.4273 13.8713 11.2821C14.0242 11.129 14.2355 11.0523 14.4462 11.0523C14.6569 11.0523 14.8682 11.1289 15.0213 11.2818C15.1877 11.4479 15.2769 11.6616 15.2723 11.8833C15.2681 12.0913 15.1805 12.2847 15.0213 12.4318Z" fill="white"/>
</g>
</g>
</g>
<defs>
<clipPath id="clip0_330_484">
<rect width="24" height="24" fill="white"/>
</clipPath>
</defs>
</svg>
